<mxfile host="app.diagrams.net" agent="Mozilla/5.0 (Windows NT 10.0; Win64; x64) AppleWebKit/537.36 (KHTML, like Gecko) Chrome/131.0.0.0 Safari/537.36 Edg/131.0.0.0" version="26.0.6">
  <diagram name="Page-1" id="9f46799a-70d6-7492-0946-bef42562c5a5">
    <mxGraphModel dx="2589" dy="841" grid="1" gridSize="10" guides="1" tooltips="1" connect="1" arrows="1" fold="1" page="1" pageScale="1" pageWidth="1100" pageHeight="850" background="none" math="0" shadow="0">
      <root>
        <mxCell id="0" />
        <mxCell id="1" parent="0" />
        <mxCell id="78961159f06e98e8-123" style="edgeStyle=orthogonalEdgeStyle;html=1;labelBackgroundColor=none;startFill=0;startSize=8;endArrow=open;endFill=0;endSize=16;fontFamily=Verdana;fontSize=12;dashed=1;" parent="1" source="78961159f06e98e8-17" target="78961159f06e98e8-69" edge="1">
          <mxGeometry relative="1" as="geometry">
            <Array as="points">
              <mxPoint x="190" y="380" />
              <mxPoint x="430" y="380" />
            </Array>
          </mxGeometry>
        </mxCell>
        <mxCell id="78961159f06e98e8-124" style="edgeStyle=orthogonalEdgeStyle;html=1;labelBackgroundColor=none;startFill=0;startSize=8;endArrow=diamondThin;endFill=0;endSize=16;fontFamily=Verdana;fontSize=12;" parent="1" source="78961159f06e98e8-17" target="78961159f06e98e8-69" edge="1">
          <mxGeometry relative="1" as="geometry">
            <Array as="points">
              <mxPoint x="140" y="430" />
              <mxPoint x="390" y="430" />
            </Array>
          </mxGeometry>
        </mxCell>
        <mxCell id="78961159f06e98e8-17" value="Classname" style="swimlane;html=1;fontStyle=1;align=center;verticalAlign=top;childLayout=stackLayout;horizontal=1;startSize=26;horizontalStack=0;resizeParent=1;resizeLast=0;collapsible=1;marginBottom=0;swimlaneFillColor=#ffffff;rounded=0;shadow=0;comic=0;labelBackgroundColor=none;strokeWidth=1;fillColor=none;fontFamily=Verdana;fontSize=12" parent="1" vertex="1">
          <mxGeometry x="90" y="83" width="160" height="227" as="geometry" />
        </mxCell>
        <mxCell id="78961159f06e98e8-21" value="+ field: type" style="text;html=1;strokeColor=none;fillColor=none;align=left;verticalAlign=top;spacingLeft=4;spacingRight=4;whiteSpace=wrap;overflow=hidden;rotatable=0;points=[[0,0.5],[1,0.5]];portConstraint=eastwest;" parent="78961159f06e98e8-17" vertex="1">
          <mxGeometry y="26" width="160" height="26" as="geometry" />
        </mxCell>
        <mxCell id="78961159f06e98e8-23" value="+ field: type" style="text;html=1;strokeColor=none;fillColor=none;align=left;verticalAlign=top;spacingLeft=4;spacingRight=4;whiteSpace=wrap;overflow=hidden;rotatable=0;points=[[0,0.5],[1,0.5]];portConstraint=eastwest;" parent="78961159f06e98e8-17" vertex="1">
          <mxGeometry y="52" width="160" height="26" as="geometry" />
        </mxCell>
        <mxCell id="78961159f06e98e8-25" value="+ field: type" style="text;html=1;strokeColor=none;fillColor=none;align=left;verticalAlign=top;spacingLeft=4;spacingRight=4;whiteSpace=wrap;overflow=hidden;rotatable=0;points=[[0,0.5],[1,0.5]];portConstraint=eastwest;" parent="78961159f06e98e8-17" vertex="1">
          <mxGeometry y="78" width="160" height="26" as="geometry" />
        </mxCell>
        <mxCell id="78961159f06e98e8-26" value="+ field: type" style="text;html=1;strokeColor=none;fillColor=none;align=left;verticalAlign=top;spacingLeft=4;spacingRight=4;whiteSpace=wrap;overflow=hidden;rotatable=0;points=[[0,0.5],[1,0.5]];portConstraint=eastwest;" parent="78961159f06e98e8-17" vertex="1">
          <mxGeometry y="104" width="160" height="26" as="geometry" />
        </mxCell>
        <mxCell id="78961159f06e98e8-24" value="+ field: type" style="text;html=1;strokeColor=none;fillColor=none;align=left;verticalAlign=top;spacingLeft=4;spacingRight=4;whiteSpace=wrap;overflow=hidden;rotatable=0;points=[[0,0.5],[1,0.5]];portConstraint=eastwest;" parent="78961159f06e98e8-17" vertex="1">
          <mxGeometry y="130" width="160" height="26" as="geometry" />
        </mxCell>
        <mxCell id="78961159f06e98e8-19" value="" style="line;html=1;strokeWidth=1;fillColor=none;align=left;verticalAlign=middle;spacingTop=-1;spacingLeft=3;spacingRight=3;rotatable=0;labelPosition=right;points=[];portConstraint=eastwest;" parent="78961159f06e98e8-17" vertex="1">
          <mxGeometry y="156" width="160" height="8" as="geometry" />
        </mxCell>
        <mxCell id="78961159f06e98e8-20" value="+ method(type): type" style="text;html=1;strokeColor=none;fillColor=none;align=left;verticalAlign=top;spacingLeft=4;spacingRight=4;whiteSpace=wrap;overflow=hidden;rotatable=0;points=[[0,0.5],[1,0.5]];portConstraint=eastwest;" parent="78961159f06e98e8-17" vertex="1">
          <mxGeometry y="164" width="160" height="26" as="geometry" />
        </mxCell>
        <mxCell id="78961159f06e98e8-27" value="+ method(type): type" style="text;html=1;strokeColor=none;fillColor=none;align=left;verticalAlign=top;spacingLeft=4;spacingRight=4;whiteSpace=wrap;overflow=hidden;rotatable=0;points=[[0,0.5],[1,0.5]];portConstraint=eastwest;" parent="78961159f06e98e8-17" vertex="1">
          <mxGeometry y="190" width="160" height="26" as="geometry" />
        </mxCell>
        <mxCell id="78961159f06e98e8-122" style="edgeStyle=elbowEdgeStyle;html=1;labelBackgroundColor=none;startFill=0;startSize=8;endArrow=open;endFill=0;endSize=16;fontFamily=Verdana;fontSize=12;elbow=vertical;dashed=1;" parent="1" source="78961159f06e98e8-30" target="78961159f06e98e8-43" edge="1">
          <mxGeometry relative="1" as="geometry" />
        </mxCell>
        <mxCell id="78961159f06e98e8-30" value="Classname" style="swimlane;html=1;fontStyle=1;align=center;verticalAlign=top;childLayout=stackLayout;horizontal=1;startSize=26;horizontalStack=0;resizeParent=1;resizeLast=0;collapsible=1;marginBottom=0;swimlaneFillColor=#ffffff;rounded=0;shadow=0;comic=0;labelBackgroundColor=none;strokeWidth=1;fillColor=none;fontFamily=Verdana;fontSize=12" parent="1" vertex="1">
          <mxGeometry x="430" y="83" width="160" height="277" as="geometry" />
        </mxCell>
        <mxCell id="78961159f06e98e8-31" value="+ field: type" style="text;html=1;strokeColor=none;fillColor=none;align=left;verticalAlign=top;spacingLeft=4;spacingRight=4;whiteSpace=wrap;overflow=hidden;rotatable=0;points=[[0,0.5],[1,0.5]];portConstraint=eastwest;" parent="78961159f06e98e8-30" vertex="1">
          <mxGeometry y="26" width="160" height="26" as="geometry" />
        </mxCell>
        <mxCell id="78961159f06e98e8-32" value="+ field: type" style="text;html=1;strokeColor=none;fillColor=none;align=left;verticalAlign=top;spacingLeft=4;spacingRight=4;whiteSpace=wrap;overflow=hidden;rotatable=0;points=[[0,0.5],[1,0.5]];portConstraint=eastwest;" parent="78961159f06e98e8-30" vertex="1">
          <mxGeometry y="52" width="160" height="26" as="geometry" />
        </mxCell>
        <mxCell id="78961159f06e98e8-33" value="+ field: type" style="text;html=1;strokeColor=none;fillColor=none;align=left;verticalAlign=top;spacingLeft=4;spacingRight=4;whiteSpace=wrap;overflow=hidden;rotatable=0;points=[[0,0.5],[1,0.5]];portConstraint=eastwest;" parent="78961159f06e98e8-30" vertex="1">
          <mxGeometry y="78" width="160" height="26" as="geometry" />
        </mxCell>
        <mxCell id="78961159f06e98e8-34" value="+ field: type" style="text;html=1;strokeColor=none;fillColor=none;align=left;verticalAlign=top;spacingLeft=4;spacingRight=4;whiteSpace=wrap;overflow=hidden;rotatable=0;points=[[0,0.5],[1,0.5]];portConstraint=eastwest;" parent="78961159f06e98e8-30" vertex="1">
          <mxGeometry y="104" width="160" height="26" as="geometry" />
        </mxCell>
        <mxCell id="78961159f06e98e8-36" value="+ field: type" style="text;html=1;strokeColor=none;fillColor=none;align=left;verticalAlign=top;spacingLeft=4;spacingRight=4;whiteSpace=wrap;overflow=hidden;rotatable=0;points=[[0,0.5],[1,0.5]];portConstraint=eastwest;" parent="78961159f06e98e8-30" vertex="1">
          <mxGeometry y="130" width="160" height="26" as="geometry" />
        </mxCell>
        <mxCell id="78961159f06e98e8-37" value="+ field: type" style="text;html=1;strokeColor=none;fillColor=none;align=left;verticalAlign=top;spacingLeft=4;spacingRight=4;whiteSpace=wrap;overflow=hidden;rotatable=0;points=[[0,0.5],[1,0.5]];portConstraint=eastwest;" parent="78961159f06e98e8-30" vertex="1">
          <mxGeometry y="156" width="160" height="26" as="geometry" />
        </mxCell>
        <mxCell id="78961159f06e98e8-38" value="" style="line;html=1;strokeWidth=1;fillColor=none;align=left;verticalAlign=middle;spacingTop=-1;spacingLeft=3;spacingRight=3;rotatable=0;labelPosition=right;points=[];portConstraint=eastwest;" parent="78961159f06e98e8-30" vertex="1">
          <mxGeometry y="182" width="160" height="8" as="geometry" />
        </mxCell>
        <mxCell id="78961159f06e98e8-39" value="+ method(type): type" style="text;html=1;strokeColor=none;fillColor=none;align=left;verticalAlign=top;spacingLeft=4;spacingRight=4;whiteSpace=wrap;overflow=hidden;rotatable=0;points=[[0,0.5],[1,0.5]];portConstraint=eastwest;" parent="78961159f06e98e8-30" vertex="1">
          <mxGeometry y="190" width="160" height="26" as="geometry" />
        </mxCell>
        <mxCell id="78961159f06e98e8-40" value="+ method(type): type" style="text;html=1;strokeColor=none;fillColor=none;align=left;verticalAlign=top;spacingLeft=4;spacingRight=4;whiteSpace=wrap;overflow=hidden;rotatable=0;points=[[0,0.5],[1,0.5]];portConstraint=eastwest;" parent="78961159f06e98e8-30" vertex="1">
          <mxGeometry y="216" width="160" height="26" as="geometry" />
        </mxCell>
        <mxCell id="78961159f06e98e8-42" value="+ method(type): type" style="text;html=1;strokeColor=none;fillColor=none;align=left;verticalAlign=top;spacingLeft=4;spacingRight=4;whiteSpace=wrap;overflow=hidden;rotatable=0;points=[[0,0.5],[1,0.5]];portConstraint=eastwest;" parent="78961159f06e98e8-30" vertex="1">
          <mxGeometry y="242" width="160" height="26" as="geometry" />
        </mxCell>
        <mxCell id="78961159f06e98e8-43" value="Classname" style="swimlane;html=1;fontStyle=1;align=center;verticalAlign=top;childLayout=stackLayout;horizontal=1;startSize=26;horizontalStack=0;resizeParent=1;resizeLast=0;collapsible=1;marginBottom=0;swimlaneFillColor=#ffffff;rounded=0;shadow=0;comic=0;labelBackgroundColor=none;strokeWidth=1;fillColor=none;fontFamily=Verdana;fontSize=12" parent="1" vertex="1">
          <mxGeometry x="740" y="83" width="160" height="197" as="geometry" />
        </mxCell>
        <mxCell id="78961159f06e98e8-44" value="+ field: type" style="text;html=1;strokeColor=none;fillColor=none;align=left;verticalAlign=top;spacingLeft=4;spacingRight=4;whiteSpace=wrap;overflow=hidden;rotatable=0;points=[[0,0.5],[1,0.5]];portConstraint=eastwest;" parent="78961159f06e98e8-43" vertex="1">
          <mxGeometry y="26" width="160" height="26" as="geometry" />
        </mxCell>
        <mxCell id="78961159f06e98e8-45" value="+ field: type" style="text;html=1;strokeColor=none;fillColor=none;align=left;verticalAlign=top;spacingLeft=4;spacingRight=4;whiteSpace=wrap;overflow=hidden;rotatable=0;points=[[0,0.5],[1,0.5]];portConstraint=eastwest;" parent="78961159f06e98e8-43" vertex="1">
          <mxGeometry y="52" width="160" height="26" as="geometry" />
        </mxCell>
        <mxCell id="78961159f06e98e8-49" value="+ field: type" style="text;html=1;strokeColor=none;fillColor=none;align=left;verticalAlign=top;spacingLeft=4;spacingRight=4;whiteSpace=wrap;overflow=hidden;rotatable=0;points=[[0,0.5],[1,0.5]];portConstraint=eastwest;" parent="78961159f06e98e8-43" vertex="1">
          <mxGeometry y="78" width="160" height="26" as="geometry" />
        </mxCell>
        <mxCell id="78961159f06e98e8-50" value="+ field: type" style="text;html=1;strokeColor=none;fillColor=none;align=left;verticalAlign=top;spacingLeft=4;spacingRight=4;whiteSpace=wrap;overflow=hidden;rotatable=0;points=[[0,0.5],[1,0.5]];portConstraint=eastwest;" parent="78961159f06e98e8-43" vertex="1">
          <mxGeometry y="104" width="160" height="26" as="geometry" />
        </mxCell>
        <mxCell id="78961159f06e98e8-51" value="" style="line;html=1;strokeWidth=1;fillColor=none;align=left;verticalAlign=middle;spacingTop=-1;spacingLeft=3;spacingRight=3;rotatable=0;labelPosition=right;points=[];portConstraint=eastwest;" parent="78961159f06e98e8-43" vertex="1">
          <mxGeometry y="130" width="160" height="8" as="geometry" />
        </mxCell>
        <mxCell id="78961159f06e98e8-52" value="+ method(type): type" style="text;html=1;strokeColor=none;fillColor=none;align=left;verticalAlign=top;spacingLeft=4;spacingRight=4;whiteSpace=wrap;overflow=hidden;rotatable=0;points=[[0,0.5],[1,0.5]];portConstraint=eastwest;" parent="78961159f06e98e8-43" vertex="1">
          <mxGeometry y="138" width="160" height="26" as="geometry" />
        </mxCell>
        <mxCell id="78961159f06e98e8-53" value="+ method(type): type" style="text;html=1;strokeColor=none;fillColor=none;align=left;verticalAlign=top;spacingLeft=4;spacingRight=4;whiteSpace=wrap;overflow=hidden;rotatable=0;points=[[0,0.5],[1,0.5]];portConstraint=eastwest;" parent="78961159f06e98e8-43" vertex="1">
          <mxGeometry y="164" width="160" height="26" as="geometry" />
        </mxCell>
        <mxCell id="78961159f06e98e8-129" style="edgeStyle=elbowEdgeStyle;html=1;labelBackgroundColor=none;startFill=0;startSize=8;endArrow=open;endFill=0;endSize=16;fontFamily=Verdana;fontSize=12;elbow=vertical;dashed=1;" parent="1" source="78961159f06e98e8-69" target="78961159f06e98e8-56" edge="1">
          <mxGeometry relative="1" as="geometry" />
        </mxCell>
        <mxCell id="78961159f06e98e8-56" value="Classname" style="swimlane;html=1;fontStyle=1;align=center;verticalAlign=top;childLayout=stackLayout;horizontal=1;startSize=26;horizontalStack=0;resizeParent=1;resizeLast=0;collapsible=1;marginBottom=0;swimlaneFillColor=#ffffff;rounded=0;shadow=0;comic=0;labelBackgroundColor=none;strokeWidth=1;fillColor=none;fontFamily=Verdana;fontSize=12" parent="1" vertex="1">
          <mxGeometry x="90" y="482.00000000000006" width="160" height="300" as="geometry" />
        </mxCell>
        <mxCell id="78961159f06e98e8-57" value="+ field: type" style="text;html=1;strokeColor=none;fillColor=none;align=left;verticalAlign=top;spacingLeft=4;spacingRight=4;whiteSpace=wrap;overflow=hidden;rotatable=0;points=[[0,0.5],[1,0.5]];portConstraint=eastwest;" parent="78961159f06e98e8-56" vertex="1">
          <mxGeometry y="26" width="160" height="26" as="geometry" />
        </mxCell>
        <mxCell id="78961159f06e98e8-58" value="+ field: type" style="text;html=1;strokeColor=none;fillColor=none;align=left;verticalAlign=top;spacingLeft=4;spacingRight=4;whiteSpace=wrap;overflow=hidden;rotatable=0;points=[[0,0.5],[1,0.5]];portConstraint=eastwest;" parent="78961159f06e98e8-56" vertex="1">
          <mxGeometry y="52" width="160" height="26" as="geometry" />
        </mxCell>
        <mxCell id="78961159f06e98e8-59" value="+ field: type" style="text;html=1;strokeColor=none;fillColor=none;align=left;verticalAlign=top;spacingLeft=4;spacingRight=4;whiteSpace=wrap;overflow=hidden;rotatable=0;points=[[0,0.5],[1,0.5]];portConstraint=eastwest;" parent="78961159f06e98e8-56" vertex="1">
          <mxGeometry y="78" width="160" height="26" as="geometry" />
        </mxCell>
        <mxCell id="78961159f06e98e8-60" value="+ field: type" style="text;html=1;strokeColor=none;fillColor=none;align=left;verticalAlign=top;spacingLeft=4;spacingRight=4;whiteSpace=wrap;overflow=hidden;rotatable=0;points=[[0,0.5],[1,0.5]];portConstraint=eastwest;" parent="78961159f06e98e8-56" vertex="1">
          <mxGeometry y="104" width="160" height="26" as="geometry" />
        </mxCell>
        <mxCell id="78961159f06e98e8-61" value="+ field: type" style="text;html=1;strokeColor=none;fillColor=none;align=left;verticalAlign=top;spacingLeft=4;spacingRight=4;whiteSpace=wrap;overflow=hidden;rotatable=0;points=[[0,0.5],[1,0.5]];portConstraint=eastwest;" parent="78961159f06e98e8-56" vertex="1">
          <mxGeometry y="130" width="160" height="26" as="geometry" />
        </mxCell>
        <mxCell id="78961159f06e98e8-62" value="+ field: type" style="text;html=1;strokeColor=none;fillColor=none;align=left;verticalAlign=top;spacingLeft=4;spacingRight=4;whiteSpace=wrap;overflow=hidden;rotatable=0;points=[[0,0.5],[1,0.5]];portConstraint=eastwest;" parent="78961159f06e98e8-56" vertex="1">
          <mxGeometry y="156" width="160" height="26" as="geometry" />
        </mxCell>
        <mxCell id="78961159f06e98e8-63" value="+ field: type" style="text;html=1;strokeColor=none;fillColor=none;align=left;verticalAlign=top;spacingLeft=4;spacingRight=4;whiteSpace=wrap;overflow=hidden;rotatable=0;points=[[0,0.5],[1,0.5]];portConstraint=eastwest;" parent="78961159f06e98e8-56" vertex="1">
          <mxGeometry y="182" width="160" height="26" as="geometry" />
        </mxCell>
        <mxCell id="78961159f06e98e8-64" value="" style="line;html=1;strokeWidth=1;fillColor=none;align=left;verticalAlign=middle;spacingTop=-1;spacingLeft=3;spacingRight=3;rotatable=0;labelPosition=right;points=[];portConstraint=eastwest;" parent="78961159f06e98e8-56" vertex="1">
          <mxGeometry y="208" width="160" height="8" as="geometry" />
        </mxCell>
        <mxCell id="78961159f06e98e8-65" value="+ method(type): type" style="text;html=1;strokeColor=none;fillColor=none;align=left;verticalAlign=top;spacingLeft=4;spacingRight=4;whiteSpace=wrap;overflow=hidden;rotatable=0;points=[[0,0.5],[1,0.5]];portConstraint=eastwest;" parent="78961159f06e98e8-56" vertex="1">
          <mxGeometry y="216" width="160" height="26" as="geometry" />
        </mxCell>
        <mxCell id="78961159f06e98e8-66" value="+ method(type): type" style="text;html=1;strokeColor=none;fillColor=none;align=left;verticalAlign=top;spacingLeft=4;spacingRight=4;whiteSpace=wrap;overflow=hidden;rotatable=0;points=[[0,0.5],[1,0.5]];portConstraint=eastwest;" parent="78961159f06e98e8-56" vertex="1">
          <mxGeometry y="242" width="160" height="26" as="geometry" />
        </mxCell>
        <mxCell id="78961159f06e98e8-68" value="+ method(type): type" style="text;html=1;strokeColor=none;fillColor=none;align=left;verticalAlign=top;spacingLeft=4;spacingRight=4;whiteSpace=wrap;overflow=hidden;rotatable=0;points=[[0,0.5],[1,0.5]];portConstraint=eastwest;" parent="78961159f06e98e8-56" vertex="1">
          <mxGeometry y="268" width="160" height="26" as="geometry" />
        </mxCell>
        <mxCell id="78961159f06e98e8-130" style="edgeStyle=elbowEdgeStyle;html=1;labelBackgroundColor=none;startFill=0;startSize=8;endArrow=diamondThin;endFill=0;endSize=16;fontFamily=Verdana;fontSize=12;elbow=vertical;" parent="1" source="78961159f06e98e8-82" target="78961159f06e98e8-69" edge="1">
          <mxGeometry relative="1" as="geometry" />
        </mxCell>
        <mxCell id="78961159f06e98e8-69" value="Classname" style="swimlane;html=1;fontStyle=1;align=center;verticalAlign=top;childLayout=stackLayout;horizontal=1;startSize=26;horizontalStack=0;resizeParent=1;resizeLast=0;collapsible=1;marginBottom=0;swimlaneFillColor=#ffffff;rounded=0;shadow=0;comic=0;labelBackgroundColor=none;strokeWidth=1;fillColor=none;fontFamily=Verdana;fontSize=12" parent="1" vertex="1">
          <mxGeometry x="360" y="481.9999999999999" width="160" height="304" as="geometry" />
        </mxCell>
        <mxCell id="78961159f06e98e8-70" value="+ field: type" style="text;html=1;strokeColor=none;fillColor=none;align=left;verticalAlign=top;spacingLeft=4;spacingRight=4;whiteSpace=wrap;overflow=hidden;rotatable=0;points=[[0,0.5],[1,0.5]];portConstraint=eastwest;" parent="78961159f06e98e8-69" vertex="1">
          <mxGeometry y="26" width="160" height="26" as="geometry" />
        </mxCell>
        <mxCell id="78961159f06e98e8-71" value="+ field: type" style="text;html=1;strokeColor=none;fillColor=none;align=left;verticalAlign=top;spacingLeft=4;spacingRight=4;whiteSpace=wrap;overflow=hidden;rotatable=0;points=[[0,0.5],[1,0.5]];portConstraint=eastwest;" parent="78961159f06e98e8-69" vertex="1">
          <mxGeometry y="52" width="160" height="26" as="geometry" />
        </mxCell>
        <mxCell id="78961159f06e98e8-72" value="+ field: type" style="text;html=1;strokeColor=none;fillColor=none;align=left;verticalAlign=top;spacingLeft=4;spacingRight=4;whiteSpace=wrap;overflow=hidden;rotatable=0;points=[[0,0.5],[1,0.5]];portConstraint=eastwest;" parent="78961159f06e98e8-69" vertex="1">
          <mxGeometry y="78" width="160" height="26" as="geometry" />
        </mxCell>
        <mxCell id="78961159f06e98e8-74" value="+ field: type" style="text;html=1;strokeColor=none;fillColor=none;align=left;verticalAlign=top;spacingLeft=4;spacingRight=4;whiteSpace=wrap;overflow=hidden;rotatable=0;points=[[0,0.5],[1,0.5]];portConstraint=eastwest;" parent="78961159f06e98e8-69" vertex="1">
          <mxGeometry y="104" width="160" height="26" as="geometry" />
        </mxCell>
        <mxCell id="78961159f06e98e8-75" value="+ field: type" style="text;html=1;strokeColor=none;fillColor=none;align=left;verticalAlign=top;spacingLeft=4;spacingRight=4;whiteSpace=wrap;overflow=hidden;rotatable=0;points=[[0,0.5],[1,0.5]];portConstraint=eastwest;" parent="78961159f06e98e8-69" vertex="1">
          <mxGeometry y="130" width="160" height="26" as="geometry" />
        </mxCell>
        <mxCell id="78961159f06e98e8-76" value="+ field: type" style="text;html=1;strokeColor=none;fillColor=none;align=left;verticalAlign=top;spacingLeft=4;spacingRight=4;whiteSpace=wrap;overflow=hidden;rotatable=0;points=[[0,0.5],[1,0.5]];portConstraint=eastwest;" parent="78961159f06e98e8-69" vertex="1">
          <mxGeometry y="156" width="160" height="26" as="geometry" />
        </mxCell>
        <mxCell id="78961159f06e98e8-77" value="" style="line;html=1;strokeWidth=1;fillColor=none;align=left;verticalAlign=middle;spacingTop=-1;spacingLeft=3;spacingRight=3;rotatable=0;labelPosition=right;points=[];portConstraint=eastwest;" parent="78961159f06e98e8-69" vertex="1">
          <mxGeometry y="182" width="160" height="8" as="geometry" />
        </mxCell>
        <mxCell id="78961159f06e98e8-78" value="+ method(type): type" style="text;html=1;strokeColor=none;fillColor=none;align=left;verticalAlign=top;spacingLeft=4;spacingRight=4;whiteSpace=wrap;overflow=hidden;rotatable=0;points=[[0,0.5],[1,0.5]];portConstraint=eastwest;" parent="78961159f06e98e8-69" vertex="1">
          <mxGeometry y="190" width="160" height="26" as="geometry" />
        </mxCell>
        <mxCell id="78961159f06e98e8-79" value="+ method(type): type" style="text;html=1;strokeColor=none;fillColor=none;align=left;verticalAlign=top;spacingLeft=4;spacingRight=4;whiteSpace=wrap;overflow=hidden;rotatable=0;points=[[0,0.5],[1,0.5]];portConstraint=eastwest;" parent="78961159f06e98e8-69" vertex="1">
          <mxGeometry y="216" width="160" height="26" as="geometry" />
        </mxCell>
        <mxCell id="78961159f06e98e8-80" value="+ method(type): type" style="text;html=1;strokeColor=none;fillColor=none;align=left;verticalAlign=top;spacingLeft=4;spacingRight=4;whiteSpace=wrap;overflow=hidden;rotatable=0;points=[[0,0.5],[1,0.5]];portConstraint=eastwest;" parent="78961159f06e98e8-69" vertex="1">
          <mxGeometry y="242" width="160" height="26" as="geometry" />
        </mxCell>
        <mxCell id="78961159f06e98e8-81" value="+ method(type): type" style="text;html=1;strokeColor=none;fillColor=none;align=left;verticalAlign=top;spacingLeft=4;spacingRight=4;whiteSpace=wrap;overflow=hidden;rotatable=0;points=[[0,0.5],[1,0.5]];portConstraint=eastwest;" parent="78961159f06e98e8-69" vertex="1">
          <mxGeometry y="268" width="160" height="26" as="geometry" />
        </mxCell>
        <mxCell id="78961159f06e98e8-128" style="edgeStyle=orthogonalEdgeStyle;html=1;labelBackgroundColor=none;startFill=0;startSize=8;endArrow=block;endFill=0;endSize=16;fontFamily=Verdana;fontSize=12;" parent="1" source="78961159f06e98e8-82" target="78961159f06e98e8-43" edge="1">
          <mxGeometry relative="1" as="geometry">
            <Array as="points">
              <mxPoint x="630" y="430" />
              <mxPoint x="790" y="430" />
            </Array>
          </mxGeometry>
        </mxCell>
        <mxCell id="78961159f06e98e8-82" value="Classname" style="swimlane;html=1;fontStyle=1;align=center;verticalAlign=top;childLayout=stackLayout;horizontal=1;startSize=26;horizontalStack=0;resizeParent=1;resizeLast=0;collapsible=1;marginBottom=0;swimlaneFillColor=#ffffff;rounded=0;shadow=0;comic=0;labelBackgroundColor=none;strokeWidth=1;fillColor=none;fontFamily=Verdana;fontSize=12" parent="1" vertex="1">
          <mxGeometry x="550" y="482.00000000000006" width="160" height="270" as="geometry" />
        </mxCell>
        <mxCell id="78961159f06e98e8-83" value="+ field: type" style="text;html=1;strokeColor=none;fillColor=none;align=left;verticalAlign=top;spacingLeft=4;spacingRight=4;whiteSpace=wrap;overflow=hidden;rotatable=0;points=[[0,0.5],[1,0.5]];portConstraint=eastwest;" parent="78961159f06e98e8-82" vertex="1">
          <mxGeometry y="26" width="160" height="26" as="geometry" />
        </mxCell>
        <mxCell id="78961159f06e98e8-84" value="+ field: type" style="text;html=1;strokeColor=none;fillColor=none;align=left;verticalAlign=top;spacingLeft=4;spacingRight=4;whiteSpace=wrap;overflow=hidden;rotatable=0;points=[[0,0.5],[1,0.5]];portConstraint=eastwest;" parent="78961159f06e98e8-82" vertex="1">
          <mxGeometry y="52" width="160" height="26" as="geometry" />
        </mxCell>
        <mxCell id="78961159f06e98e8-85" value="+ field: type" style="text;html=1;strokeColor=none;fillColor=none;align=left;verticalAlign=top;spacingLeft=4;spacingRight=4;whiteSpace=wrap;overflow=hidden;rotatable=0;points=[[0,0.5],[1,0.5]];portConstraint=eastwest;" parent="78961159f06e98e8-82" vertex="1">
          <mxGeometry y="78" width="160" height="26" as="geometry" />
        </mxCell>
        <mxCell id="78961159f06e98e8-86" value="+ field: type" style="text;html=1;strokeColor=none;fillColor=none;align=left;verticalAlign=top;spacingLeft=4;spacingRight=4;whiteSpace=wrap;overflow=hidden;rotatable=0;points=[[0,0.5],[1,0.5]];portConstraint=eastwest;" parent="78961159f06e98e8-82" vertex="1">
          <mxGeometry y="104" width="160" height="26" as="geometry" />
        </mxCell>
        <mxCell id="78961159f06e98e8-87" value="+ field: type" style="text;html=1;strokeColor=none;fillColor=none;align=left;verticalAlign=top;spacingLeft=4;spacingRight=4;whiteSpace=wrap;overflow=hidden;rotatable=0;points=[[0,0.5],[1,0.5]];portConstraint=eastwest;" parent="78961159f06e98e8-82" vertex="1">
          <mxGeometry y="130" width="160" height="26" as="geometry" />
        </mxCell>
        <mxCell id="78961159f06e98e8-88" value="+ field: type" style="text;html=1;strokeColor=none;fillColor=none;align=left;verticalAlign=top;spacingLeft=4;spacingRight=4;whiteSpace=wrap;overflow=hidden;rotatable=0;points=[[0,0.5],[1,0.5]];portConstraint=eastwest;" parent="78961159f06e98e8-82" vertex="1">
          <mxGeometry y="156" width="160" height="26" as="geometry" />
        </mxCell>
        <mxCell id="78961159f06e98e8-89" value="+ field: type" style="text;html=1;strokeColor=none;fillColor=none;align=left;verticalAlign=top;spacingLeft=4;spacingRight=4;whiteSpace=wrap;overflow=hidden;rotatable=0;points=[[0,0.5],[1,0.5]];portConstraint=eastwest;" parent="78961159f06e98e8-82" vertex="1">
          <mxGeometry y="182" width="160" height="26" as="geometry" />
        </mxCell>
        <mxCell id="78961159f06e98e8-90" value="" style="line;html=1;strokeWidth=1;fillColor=none;align=left;verticalAlign=middle;spacingTop=-1;spacingLeft=3;spacingRight=3;rotatable=0;labelPosition=right;points=[];portConstraint=eastwest;" parent="78961159f06e98e8-82" vertex="1">
          <mxGeometry y="208" width="160" height="8" as="geometry" />
        </mxCell>
        <mxCell id="78961159f06e98e8-91" value="+ method(type): type" style="text;html=1;strokeColor=none;fillColor=none;align=left;verticalAlign=top;spacingLeft=4;spacingRight=4;whiteSpace=wrap;overflow=hidden;rotatable=0;points=[[0,0.5],[1,0.5]];portConstraint=eastwest;" parent="78961159f06e98e8-82" vertex="1">
          <mxGeometry y="216" width="160" height="26" as="geometry" />
        </mxCell>
        <mxCell id="78961159f06e98e8-94" value="+ method(type): type" style="text;html=1;strokeColor=none;fillColor=none;align=left;verticalAlign=top;spacingLeft=4;spacingRight=4;whiteSpace=wrap;overflow=hidden;rotatable=0;points=[[0,0.5],[1,0.5]];portConstraint=eastwest;" parent="78961159f06e98e8-82" vertex="1">
          <mxGeometry y="242" width="160" height="26" as="geometry" />
        </mxCell>
        <mxCell id="78961159f06e98e8-127" style="edgeStyle=orthogonalEdgeStyle;html=1;labelBackgroundColor=none;startFill=0;startSize=8;endArrow=block;endFill=0;endSize=16;fontFamily=Verdana;fontSize=12;" parent="1" source="78961159f06e98e8-95" target="78961159f06e98e8-43" edge="1">
          <mxGeometry relative="1" as="geometry" />
        </mxCell>
        <mxCell id="78961159f06e98e8-95" value="Classname" style="swimlane;html=1;fontStyle=1;align=center;verticalAlign=top;childLayout=stackLayout;horizontal=1;startSize=26;horizontalStack=0;resizeParent=1;resizeLast=0;collapsible=1;marginBottom=0;swimlaneFillColor=#ffffff;rounded=0;shadow=0;comic=0;labelBackgroundColor=none;strokeWidth=1;fillColor=none;fontFamily=Verdana;fontSize=12" parent="1" vertex="1">
          <mxGeometry x="740" y="482" width="160" height="168" as="geometry" />
        </mxCell>
        <mxCell id="78961159f06e98e8-96" value="+ field: type" style="text;html=1;strokeColor=none;fillColor=none;align=left;verticalAlign=top;spacingLeft=4;spacingRight=4;whiteSpace=wrap;overflow=hidden;rotatable=0;points=[[0,0.5],[1,0.5]];portConstraint=eastwest;" parent="78961159f06e98e8-95" vertex="1">
          <mxGeometry y="26" width="160" height="26" as="geometry" />
        </mxCell>
        <mxCell id="78961159f06e98e8-97" value="+ field: type" style="text;html=1;strokeColor=none;fillColor=none;align=left;verticalAlign=top;spacingLeft=4;spacingRight=4;whiteSpace=wrap;overflow=hidden;rotatable=0;points=[[0,0.5],[1,0.5]];portConstraint=eastwest;" parent="78961159f06e98e8-95" vertex="1">
          <mxGeometry y="52" width="160" height="26" as="geometry" />
        </mxCell>
        <mxCell id="78961159f06e98e8-98" value="+ field: type" style="text;html=1;strokeColor=none;fillColor=none;align=left;verticalAlign=top;spacingLeft=4;spacingRight=4;whiteSpace=wrap;overflow=hidden;rotatable=0;points=[[0,0.5],[1,0.5]];portConstraint=eastwest;" parent="78961159f06e98e8-95" vertex="1">
          <mxGeometry y="78" width="160" height="26" as="geometry" />
        </mxCell>
        <mxCell id="78961159f06e98e8-102" value="+ field: type" style="text;html=1;strokeColor=none;fillColor=none;align=left;verticalAlign=top;spacingLeft=4;spacingRight=4;whiteSpace=wrap;overflow=hidden;rotatable=0;points=[[0,0.5],[1,0.5]];portConstraint=eastwest;" parent="78961159f06e98e8-95" vertex="1">
          <mxGeometry y="104" width="160" height="26" as="geometry" />
        </mxCell>
        <mxCell id="78961159f06e98e8-103" value="" style="line;html=1;strokeWidth=1;fillColor=none;align=left;verticalAlign=middle;spacingTop=-1;spacingLeft=3;spacingRight=3;rotatable=0;labelPosition=right;points=[];portConstraint=eastwest;" parent="78961159f06e98e8-95" vertex="1">
          <mxGeometry y="130" width="160" height="8" as="geometry" />
        </mxCell>
        <mxCell id="78961159f06e98e8-104" value="+ method(type): type" style="text;html=1;strokeColor=none;fillColor=none;align=left;verticalAlign=top;spacingLeft=4;spacingRight=4;whiteSpace=wrap;overflow=hidden;rotatable=0;points=[[0,0.5],[1,0.5]];portConstraint=eastwest;" parent="78961159f06e98e8-95" vertex="1">
          <mxGeometry y="138" width="160" height="26" as="geometry" />
        </mxCell>
        <mxCell id="78961159f06e98e8-126" style="edgeStyle=orthogonalEdgeStyle;html=1;labelBackgroundColor=none;startFill=0;startSize=8;endArrow=block;endFill=0;endSize=16;fontFamily=Verdana;fontSize=12;" parent="1" source="78961159f06e98e8-108" target="78961159f06e98e8-43" edge="1">
          <mxGeometry relative="1" as="geometry">
            <Array as="points">
              <mxPoint x="1000" y="430" />
              <mxPoint x="850" y="430" />
            </Array>
          </mxGeometry>
        </mxCell>
        <mxCell id="78961159f06e98e8-108" value="Classname" style="swimlane;html=1;fontStyle=1;align=center;verticalAlign=top;childLayout=stackLayout;horizontal=1;startSize=26;horizontalStack=0;resizeParent=1;resizeLast=0;collapsible=1;marginBottom=0;swimlaneFillColor=#ffffff;rounded=0;shadow=0;comic=0;labelBackgroundColor=none;strokeWidth=1;fillColor=none;fontFamily=Verdana;fontSize=12" parent="1" vertex="1">
          <mxGeometry x="920" y="481.99999999999983" width="160" height="147" as="geometry" />
        </mxCell>
        <mxCell id="78961159f06e98e8-109" value="+ field: type" style="text;html=1;strokeColor=none;fillColor=none;align=left;verticalAlign=top;spacingLeft=4;spacingRight=4;whiteSpace=wrap;overflow=hidden;rotatable=0;points=[[0,0.5],[1,0.5]];portConstraint=eastwest;" parent="78961159f06e98e8-108" vertex="1">
          <mxGeometry y="26" width="160" height="26" as="geometry" />
        </mxCell>
        <mxCell id="78961159f06e98e8-110" value="+ field: type" style="text;html=1;strokeColor=none;fillColor=none;align=left;verticalAlign=top;spacingLeft=4;spacingRight=4;whiteSpace=wrap;overflow=hidden;rotatable=0;points=[[0,0.5],[1,0.5]];portConstraint=eastwest;" parent="78961159f06e98e8-108" vertex="1">
          <mxGeometry y="52" width="160" height="26" as="geometry" />
        </mxCell>
        <mxCell id="78961159f06e98e8-116" value="" style="line;html=1;strokeWidth=1;fillColor=none;align=left;verticalAlign=middle;spacingTop=-1;spacingLeft=3;spacingRight=3;rotatable=0;labelPosition=right;points=[];portConstraint=eastwest;" parent="78961159f06e98e8-108" vertex="1">
          <mxGeometry y="78" width="160" height="8" as="geometry" />
        </mxCell>
        <mxCell id="78961159f06e98e8-117" value="+ method(type): type" style="text;html=1;strokeColor=none;fillColor=none;align=left;verticalAlign=top;spacingLeft=4;spacingRight=4;whiteSpace=wrap;overflow=hidden;rotatable=0;points=[[0,0.5],[1,0.5]];portConstraint=eastwest;" parent="78961159f06e98e8-108" vertex="1">
          <mxGeometry y="86" width="160" height="26" as="geometry" />
        </mxCell>
        <mxCell id="78961159f06e98e8-120" value="+ method(type): type" style="text;html=1;strokeColor=none;fillColor=none;align=left;verticalAlign=top;spacingLeft=4;spacingRight=4;whiteSpace=wrap;overflow=hidden;rotatable=0;points=[[0,0.5],[1,0.5]];portConstraint=eastwest;" parent="78961159f06e98e8-108" vertex="1">
          <mxGeometry y="112" width="160" height="26" as="geometry" />
        </mxCell>
        <mxCell id="78961159f06e98e8-121" style="edgeStyle=elbowEdgeStyle;html=1;labelBackgroundColor=none;startFill=0;startSize=8;endArrow=diamondThin;endFill=0;endSize=16;fontFamily=Verdana;fontSize=12;elbow=vertical;" parent="1" source="78961159f06e98e8-17" target="78961159f06e98e8-30" edge="1">
          <mxGeometry relative="1" as="geometry">
            <mxPoint x="250" y="259.88235294117635" as="sourcePoint" />
          </mxGeometry>
        </mxCell>
        <mxCell id="0g82FtaFhQaN-f7npblm-1" value="fontFamily" style="text;whiteSpace=wrap;html=1;" vertex="1" parent="1">
          <mxGeometry x="-60" y="612" width="90" height="40" as="geometry" />
        </mxCell>
        <mxCell id="0g82FtaFhQaN-f7npblm-2" value="" style="shape=stencil(lVnbchs3DP0avWIIgjc8p+l/ZCZOralrZxynbf4+YBVul+DqbPImaQERxOUcAHuRd18eP3x+uMTw5e315c+Hf64f3x4v8tslxuvz48Pr9c0+XeT9Rd59enl9+OP15evzx9v3zx+6ZP/018vf/R/+velFCqErxfDtxw9Cyv/98vtN/un6vJPfnm7ymVq9L29PdZavFMN9+UY5z/KNarkvzzyOHwoSqIADOFOebyCRCrgBK8nsIknQReZTTbNCpaBAoVBss4JSACZFpTR7NQXSBqIWKc8nJDMSmCTmJXdCpiBAwQIXZwULdLyvkNi7NdmtwKXTknqZx62OFQrl+YRsf5GBghLPuZQLCTjBDFCn0KiBE3KiNnupMEWQS7kOn2wKQhGdoNRkVkijBA8VzIA2u7UUYlBAZkCdS7RUEnCHYhgwx6E0EpBL9tjFoSj0UjUnFq9QAGrUPCzemfSjaI9hKZBE76WMcCwPAzaFSAzuoAZbM2pY8jGoB02UZy/1AgKX1jIwYgcCEZ3QPDkYLCDw1kplQW9UomYSz5c28EQgoOL5gQ1mQHo3JZ3vwIZ8AJda8jWt8M7V+Gn2asHy7BMjQXKw8o1z5kWqwH7LGkeIRm8g7yxpdAYMgcxgMMxz6Vj1IyYpnnpYKAAE6/ztkihQQnybKTkP6ajWYwXjjTkEghW4eZ/mQAzymrcmZ4fzGVyai2f0aoUAMJKXnqHxQP6fVVCIL6Ygs5c64qBWbOFbbaeXnqtfre8Bke53UK+QUOAKheWECnDeusMqXgERgynIbBKHMGDznkbIyxHo1skTrinAjtXitFwC5neitEQONQ2mINUrwHRNg5o2hQo7VlNwKNDJBbk1DVjfKaC2xOIQlxMY5ffSE3cFlN/5wCREVlw8bJhCPqnRxSTU4q440wOH3Fp8A9pTA6OALNl6cmlesrVgt7alqGG2Zg9MP1GjXPwR0K9p9P17oEFuSksyGZThE9LipoCQ6ahG868W9YmCN8mqFuOMzJE746Dkk8lYrmIvuabYeBS1Y7xOAozdWj2lWAclyCT1qWGzMpoEegPmdjKVKlJQ71ZrWNLJdD8HjgMsahsUHFMnyIpJPXozbOF60zpXA65Pa4pTc/IMEs+SILgmdHjgWF79fWX0BfemPddElxHD4zGGPdBbAJBD1QDJtRnbVH13dnNNMcM5QJeQ2eyGlh87DN2NhxXb1NwAKjAtbDx0FJ0ZLpU0+uEktwFqx4Er3iRLLdQgGv64QBSFFF3zGNf2nT3ACxsQXeSqDb3ApL5+yV4BoapdsSzDBiqfspR/DYODjxWCn7DMSwlt0prH7dLgvrEvR1zgCt6kiV9QmhsCMil4hjZmQOmd6sicLfkUr0BtEpi9ZLeqaAW6jfKbQoJtdwp+1shGh2iNW/3Q1/cDaLOc/EKmuwFxDx9sltFCI7ZFQWAc+j7AbZYZ9mJxYQdRCK6dXt07hHrWlpQ5+U6gstOB28oIZOi6EFaEw0xaViBh/MOxj8amcMcOiE7CwLhNvsCWJHikP1mjhbGj3uQz9E8Yi4WdPFo0Ltxm8uiVTPClbB4uoG6Chy+TRyN68L15XxtC/zuk6B0MtN/xoMmj+LJf0UfBux4/RnZ51F34nUc8KfpffI95Lm8f/n9p+un69HR757p/7l+y2k+3F7Ty/js=);lineShape=1;strokeColor=default;" vertex="1" parent="1">
          <mxGeometry x="-38.65216967948459" y="32.855484428370346" width="107.71057839893426" height="79.93692363218193" as="geometry" />
        </mxCell>
        <mxCell id="0g82FtaFhQaN-f7npblm-3" value="" style="shape=stencil(lZfJchpBDIafZq4qtdTr2XHew1XGgQoxLky2t4/I1ARaTf4xt2HQh/aFSR/et09vm0n4/XQ8fN383D2ftpN+mkR2r9vNcXeyp0kfJ314ORw3X46H76/P8+e3p7Pk+enb4cf5F37NXEuU65kS/j2/CdTy3xefZ/n97vVaXinnXj4QJwAIhdYBopQUAIGCdoA2YgYAk/YmpUwc/w/URpU7oJhODMQeqOYDipJQlQ64hOEmEJgXH/8RlQKKayVJHiiCE9GHqTUS5LWQVg9k4HVu1NQDDZhkeQqhL6ZLHG4S0WwqgwoAKC9RvHYC2CRMZXACpi4RN58IFKagVNUDjDQUYud0gS0kkWL1AOoITSQOyJQLyEMljR6IAMiWOB4AUN/FBlMbTAqgXAuFQUMDTtvo0+SjFIEGK4Q0hBUOy0Y6ZDohkyJlF1abfRU4nag1D6DSKJFkACrIQ7Z+GDsOVGvMy+9dA0CDKrVBQ0HlrRQHHxRoCJnSMFyR09aiJXpAQB7uB3joB1kG+u08+A5dWUGJah/UlR1nzdCP4pUlGpdC/uCWVj+SVs4AIe436MqdMexPfMcE0ubEIyjq5K0PMDjBrO8bnykD489fZyevaF4z1erkA5hctjbdBsFrNukyaj8mn6O/qLA9NtxddrG/Vus53RFPOwnFVwPKVxumIi6Hu6/mVXl7uJzoL7v9fr7wr7/3J729mv8O6OMf);lineShape=1;strokeColor=default;" vertex="1" parent="1">
          <mxGeometry x="-86.56393825912164" y="99.77840874787069" width="2.5723643786125194" height="62.24132096492677" as="geometry" />
        </mxCell>
        <mxCell id="0g82FtaFhQaN-f7npblm-4" value="" style="shape=stencil(lVjbchsxCP0avzJC6MZzmv5HZuI0nqZxxnF6+fuy9WhroexJ+2avOYuAwwF5Jzevj3cv+10Mr+fT8ev+x+H+/LiTT7sYD8+P+9PhbJ92cruTm4fjaf/ldHx7vr98f7lbLJdP347flzf8vOCEcl1AMfy6PAgU8p8Hny/mT4fnK3P7OaXBPlJt2/YiVGSwz1Tqtn0OFMtgr6SybV+SPw9nyuBAVSjEMQChCjwYoI0AScTAQynE45FSIQU5zdHHUJgCOJIUinkA2CE1gKpxD7EDWqIctwEcKepYBqYGPHCgMsaguVfyfUDxQRtAEoihdSJcA0CWUqI2UlsTrLRlvYyVVusOBtQoVJPPUgVZapXaWLimVHUboMalsR3sFQUcSSuF6gEJeaik6gGogbT5fliiAi2tSskdqcHCGaA1D1AQNAcTreDzmkHLLS5cqQMxSpOSFA+oyEPrOnfFDSQbVojGHpBQmgq1qUcT8pB9qQ0gQAWWFmYftKJSJ6/2BkhABQwgjkzaW2QTMFU6ooZIfsAZmTKqdCaOHhBQ0Hmiq/Uobuo6NTXSGV3fdw1A1LAQJw+QrZbEqeUYFc50a0prRTHopDMK9X4BsAcoore1vFPj8JGSqRMBm7soaMvJ1KKCqPG/AAuRXYsKrHStfrIbHTPwUOK0YGEupTwB1ry9P6jVb1gLWdAqkP2ycSXo7wcxyYxNFEC+STRMFdA20yhN1BPAJK59wVsBkQI4kMR+3nWDYzimkzFpDCE3KMW2zDgPVkg0HUrzQrnsuUAzFsBYZ9vtM6jzvF9xg6pkQcuoSmzdAOomPE042G6sfSSvmzcVEEH0KpngZYn7qrZmtE/sDXPXNwJXveDlTvqtYMM8jgSKfQXaMA/szJFaTwuYXReguVtrua9XG+bJX1KRAgV/U1hTtZH3zM4cJTISTzdmwLHobyFY2qSPrH+7j394fbcPf6/+D4enp8s/B9e/+78K7NHlbwa5/Q0=);lineShape=1;strokeColor=default;" vertex="1" parent="1">
          <mxGeometry x="-39.8398319113046" y="114.48762585314864" width="40.10108958531305" height="57.47605137100862" as="geometry" />
        </mxCell>
        <mxCell id="0g82FtaFhQaN-f7npblm-5" value="" style="shape=stencil(lVjLbhsxDPyavRKSKFHSOU3/I0Cc2qgbB477+vtya2gjcb1j5ObYnJAUh+RIEz+875/edlNw75fz6fvu9+H5sp/4yxTC4XW/Ox8u+mnix4kfXk7n3bfz6efr8/Xvt6fZcv704/Rr/g9/rjhPpc6g4P5ev2Di+P+Lr1fz4+G1M88U3GDuiXnb3Ot/G+0d+bxtrz+nYuydA/aVQjXx+LJtz5myN+nGsG0fUwu32esBgPiTo8hjPEweOEieahwAmnH1IKJKnMYM1KcAAJPIAIiOMjhTTlRHgGYVUBGKPaSUSUAOeuh+rJoE8gl6kGIBBQCit6ckTBUQIxViE1IiBoXLkfJ4SiJUgIcilMdKS6EEeqfGRrWFe9oMFQAK5TACAvTg3dJdC0IoADLVbAHFwwYtlaIBCCx11gYbK1c95LcW1nioQg5kHTMl46FSAU0dhZIZMg6PJR0bEqyLiuaMsoktQBDBY8uxAwQ0N9hOVqWLgEmvADPKFOCwBzGFyK2pNnMwIWkLocpFKqtSxzt1qBbgUdJCki3Aga5WMglbQEA5lMbmDpDQ/K6t6btjdYga2nLRAmClFbCiRkBJV6sCFFBQpReqdWyNiEu5jfcOkJEHaf3VdxzKIdnFOwPQFEiN/X1IqHA6v1ceGHngtpf7Y73ToskCIPl0CJgccpttW4CyJh8qXGwbp6c3CknX7GoIwEH2WYC4VT8EOJcyWy1QMlwQJZI3Sy7Afqiqgsc65EXh3Ab4xs0FoJUB5CupDZVOC3icdB0Ll7FMVI1n2CpKb1Q4Z/euCiAk1oOsPGRYaV9ay3ciDokNBZgtqmQJ4JTm25HRxnrQYLGrOLfqu8Abx3xDGXPgO1MjNCIsN4jalOZWi5pK66UpooXCdsf5BCWZRlyNYLpzLYuWGqXNzttlyHbKYB0wXyvHgBK0967pkA/7DIZYshJU40OyxEqx5VZ6+3RsG2S4CpUPwZqjS4CtlcYOjt63+0F3IQZ0XtFfmoTbMDcrU9r7wYa5WckJMn9120nwMcJZlRObqt9K1Zp7NKzspZmb9Nww/9Q7zV1z/fDxJPRyOB6vL0r97/YJSb+6Pj/x4z8=);lineShape=1;strokeColor=default;" vertex="1" parent="1">
          <mxGeometry x="-11.431636461360767" y="123.70595353517137" width="39.2780060961627" height="60.76627309985971" as="geometry" />
        </mxCell>
        <mxCell id="0g82FtaFhQaN-f7npblm-6" value="" style="rounded=0;whiteSpace=wrap;html=1;" vertex="1" parent="1">
          <mxGeometry x="170" y="210" width="160" height="80" as="geometry" />
        </mxCell>
        <mxCell id="0g82FtaFhQaN-f7npblm-7" value="" style="shape=stencil(lVjLctswDPwaXzEg+ALPafofmYlTe+raGcd9/X2hurRFKNpObjaFFQFwASy1iQ9vu6fX7Ub47XI+fd3+3D9fdpv4aSOyP+625/3Ffm3i4yY+vJzO2y/n0/fj8/X/69NkOf36dvoxveHXFRcotwkk/Pu6wCTl78Lnq/lhf5yZZ4qjeaKS1s0DU5DB3lYKeH/IVOsIUEqyDhAhTgNACmkFgNv7OiBmCm0dEBOlPMYsFEEMsZHyCKjUACAlqjoAslBlAGgUwwgolAI4tkhldCk3qiCtuVIddyiRWNcBJXQi3ACl5+19QPZBV6MeODh7nMYdqpEPHFy1HRzA8gbYqoFSHAAaScEOWjtzbgClALLUhGTkUrMCBCfdit+hRaqAS61RGGNoiRqghgFSGQGZBLlkzIke8G9lDdDGirOoEgAEZuKRrq2SgJObthjbRlNiQCYDaPQAxUG4RjklDrskC4CCgjAH2kjXWR7WEEufFNFPSdQDMiKH+u46eYkAtTswAwR0EAZwO1RYpPa4jZ3J2JTRyWlvXDO+Kk5rTB4g+OSKY5/VHCYTiwegoWWAmL1LqB0boCwAMEutOzBLK2xlVnLNA9CUewdQ8Tm03nxnXMqgHU9BL+iN1MyU1kUBVVzUXDyg4Ypzc3QCYC59EJAX7dj4i9Ia+uSfHRyDmtbixYONsQJcUvYCyMZiBGrDJrVLqw1eNFJK6/poNtoZHFxZ7FCxci3sJ4rpD0XKuPaBcxNAlTKSWOLroSQoRJN26XwDMOwapitd956cRFJXvUvmJOJSjJRHl5KRBQQt1YtpU8sJ7GAXFBdDDDCGkHw92BWhoBL1ging1poWegn2GLvvjK/PkKjcdfz9goVuAiaZxZkLqBv2ozDC1HDvC3dzJKoWqk2gzDPzkQoBjgPuOuJujkN1Q5xhR2FPZO4Td8XcdTjzDvgefG/Awi4sfWfgzAfv8P81tx/3zwUv+8Ph+rVh/tx/XrCl66eJ+PgH);lineShape=1;strokeColor=default;" vertex="1" parent="1">
          <mxGeometry x="109.49135642304691" y="26.4882983308529" width="105.6720881037605" height="44.52908486791548" as="geometry" />
        </mxCell>
        <mxCell id="0g82FtaFhQaN-f7npblm-8" value="" style="shape=stencil(lVbZctswDPwavWLAm3x20//ITOxaU9fOOE6T/H3gaiiLoLUdv+nAEtcuwMFt3vbPr9vB8tvlfPq9/RhfLvvB/RisHY/77Xm8yNPgnga32Z3O21/n0/vxZXp/fb5aXp/+nP5eT/iccMaQSVeU5a/pC1MJ/z78nOwP43FhL7+daewzebNu75h8e76ckAHAO4q2AbhExa8DQqkBVEBI9Yi7gOSplAaQAtm8DsiZErc5Z8ppHVAKZd8ASqYQ1wGGmZg1ojjoIioXhWwBAAmZNSAyACQKWQMyaESJxEUDCqhr8eR7AMrBUoldSAhg7lQpopCYYheSwwDTARg1jsm2dJXORMANASSnAQ4oSJJOnQcGgiiOWFUpQY1K4zQ1UvW5Rg3TAxCXRMKhCwn1QegdddIGJS1ESBrgQUj3NZqRgkqt4oIbBs8N4zQgoLrOjV0AEvIQq+aXkkONCNrDog5rbPLhIReWuAMkrIh+DHg0BmRpdVkbsOUeBqRZ9POKkJBAlWIg0+YgSygBD17OaxsRpPmgSs5VOs+LVOYGAMhiZrWqDVlEpo7eUHEy+BST6qxdMVdqM3AQyxw2yhxVhym0xWFY/bkQN3MPgrFkozK3qFVaMZIM4I6vEr+ZMxgSsTJ3YQ5Ol7XP2hzEnuscX6SKpoPmDEOZGNnHTtmjZfnodfb/9vJwuzvvxsNhunov/+u7tnya7unu6Rs=);lineShape=1;strokeColor=default;" vertex="1" parent="1">
          <mxGeometry x="264.10777186835367" y="37.11051503102124" width="21.50426870435998" height="92.62984934389134" as="geometry" />
        </mxCell>
        <mxCell id="0g82FtaFhQaN-f7npblm-9" value="" style="shape=stencil(lVfbchoxDP2afdX4bus5Tf8jMyGFKYUMIb38fbVlDEgbn23eFnOOLUtHF0/x4W379LqZgns7n47fN792z+ftFL9MIewO281pd5avKT5O8eHleNp8Ox3fD8+X369PM3L++nH8Oe/w+8JjpuhnVnB/rist/lv5eiHsd4d7QqYWFME7R84BhqPo9BGFGBCap6oJjcmFMaEwsbapFso8JuRCLipCcdT8mJA8laIIKVGqY0JoFPQJ0ZEvY4KvFPQJnimAE5i8DpwP5MCdo71BJQY3dpSz9hD5jOBR7y4yAcaLL9jAIzTGVe19yhiuXRMpA9cv4GENro0RbUBjghaz6wn0f450XRejMFk4ykVHdQGHu3M28JSAhsk74xmkSE/BKLgfN4JrYwIxKFQC1zUh9iIxsj0ZiaEy6LubbwLOMD1M0SxdcwN4sXAPsyktdociCMnaDhVpopqogqi6Xqpvfm8NwvXugRreXdvuV6qYzwaO9R5tribomcQG7qAIqt19JVc/Axc326uiMEnf1/0pE4MwSXvKJlkj1KQ0wGwCm6DvpcWyDm1sFIE7pYlHrbScqABCXXQdWUEntIVJLfQuOhp1kibwtZ4PpykzG8Ve5j4myFCg78CSMOgEplQsAZVZIZjiM5uEJkK2TUUIFQ2E3GeDKyH1UI4Ipg+J31Cm3Y2kdww0kHzEKFRBaZmNMteWHMF+aiZ0MiSCnJsd2ywBVbs5dEZ+En0cidQsYeXSn3wurBPk4/Y6ednt95fHzf3/9jUjS5eXUHz8Cw==);lineShape=1;strokeColor=default;" vertex="1" parent="1">
          <mxGeometry x="66.49122195953055" y="204.40444092883934" width="167.34824152997402" height="33.83257548763605" as="geometry" />
        </mxCell>
        <mxCell id="0g82FtaFhQaN-f7npblm-10" value="" style="shape=stencil(rVjbbhoxEP0aXke2Z3x7TtP/iBRSUGmICOnl7zsuMuAxe1CkvsHuObtzOXPxrvjhffP0tl4F93487L+vf22fj5sVf1mFsH3drA/bo/5a8eOKH172h/W3w/7j9fn0/+2pIduvH/uf7Qm/T7wsJLmxgvtzulIpx38Xvp7wu+3rNd6R8IDPJHUZn6Tf7vhIvizjYyQOA57JAbwIcRrwniov4zlQKQM+UHDLeL3tx/icX3gT74Ucm3gGEM9CLo7mZxgfpjq6257ggT2URrx4CoLwYbRHEyIBxIfy+PxUyYHnJ+JRDsVRQfYEktGg6shlYJDm34+ESBUQmCdCIQ9SJpnCKKGayAMNJWc1VyoUUQ4UxyjlQgEQiqpUxjRIN/I2oZKMBFGdgrqpKvuRwFrIQHhVozQWcqtkECWNeh4rTXOfgA9KKNESBL+hFkvwQBq1diFcERyoBiWwIfhesEuEOBNAP1VC5skHbFKZnGaU6drL5ToPIKzeuZ7YK0bBTthXMHlMKBNBcFxzsIR0JxFiCRmbxBOh4ERYMTEctU2uk9MRmVR6K70ioD5zo+TwtG0EM211ANyp0WAJaF9oTk/6RgNLw+qqJTicadO+W8nhLiCfJaSpgtDMavKenUbS0AISS4ifrtE7+rbNknuk/xOh2F1AJ0RCFRTtLsB4tOuqYKZcdLD3Fe7L1HmORkpgymW2+1I+5/L2LuCn5cGTBwTdNsSsJxmOFN1nbI1ekr+0Mpkw6SsSyJzq3+wn6oSAMEUKY0EU3UuBvr1txgkvTJO42zECNA1nhSSud8KFLdeMHz31oI1Pd58xZz7CYmuNfXQ4UwTxVIOMw6H3qMVTz6gJRwHYo6cqEyCsIA13NA7DFVq3UzMWGPY7PXUWe4qMIF96qjXHpAzzm8+77AVfQDwVH8Z8nc9xS3hmg0f7vOLFGTxq7/l8SLvg4Sl+en6F+c3RLjsVDuUWH3Nq64JajH8weDQJWn6nrxbIHtWbaaL9whI+WX/v4D/3FeUuXn9cPtm8bHe70xef6/v2E49eOn0e4se/);lineShape=1;strokeColor=default;" vertex="1" parent="1">
          <mxGeometry x="15.992371822023188" y="112.53950902522729" width="167.7594409757982" height="111.80600632861399" as="geometry" />
        </mxCell>
        <mxCell id="0g82FtaFhQaN-f7npblm-11" value="" style="shape=stencil(fZbdcgIhDIWfZm8zQAg/17Z9j85U606tdqz9e/tmZ0c0uJ47xP0I5JwEBl59bp8/1kNwn6fj4W39M76ctgM/DCGM++36OJ50NPDjwKvN4bh+PR6+9i/z74/n6ctp9H74nlb4nbmSKZeJCu5vngmZ6jzzNAO7cX8FVKEsBuBKrgKg9oAE8gkCbLeUhEoEQKSUDZDLeWYRKIl8MEDRmHwfyBrBG6Amyu4+kDxxMoB3jhwgYu7TVAsVkFcWCs4CTBEoF4RctKeOxHIf8IXYpikHikAIf+MNUW94AGSSaoAoFIE3AlOyeWU+p2E5S9yfQZcQILVuQOwZdJNoS9Ls3wA5u2XZTIHECqeJ9kDpSaauRiNVcAY1QhdBzeLBli5WazpkSsBLV25uRaqWRyFawTQzRRIQYirJzq5atkBqLfouwqUxLBepthWb10vrWZY6UOAeyKCCtDV625mm9gmUC4Wc3VLJMMIE1BsA2FW9JraVlQB7n3c9oMKhCLEvIM1zBPZ25/umNQ1tVEC2G+fFCC8g398O2hNQuQlVu752DBfA+q0ptnqO5JFmeuIuo9DY7KjY71UxdJV4EntifPWorW++R/dC4t7V3DlIB5cHx2bc7eb3yvX//QNFp+bHDT/+Aw==);lineShape=1;strokeColor=default;" vertex="1" parent="1">
          <mxGeometry x="489.55659334529264" y="3.2294117899768935" width="3.8937831434293457" height="3.887696846964843" as="geometry" />
        </mxCell>
      </root>
    </mxGraphModel>
  </diagram>
</mxfile>
